<svg width="1em" height="1em" viewBox="0 0 37 36" fill="none" xmlns="http://www.w3.org/2000/svg">
    <path
        d="M23 3H14C13.1716 3 12.5 3.67157 12.5 4.5V7.5C12.5 8.32843 13.1716 9 14 9H23C23.8284 9 24.5 8.32843 24.5 7.5V4.5C24.5 3.67157 23.8284 3 23 3Z"
        stroke="#94A3B8" stroke-width="2.4" stroke-linecap="round" stroke-linejoin="round" />
    <path
        d="M12.5 6H9.5C8.70435 6 7.94129 6.31607 7.37868 6.87868C6.81607 7.44129 6.5 8.20435 6.5 9V30C6.5 30.7956 6.81607 31.5587 7.37868 32.1213C7.94129 32.6839 8.70435 33 9.5 33H27.5C28.2956 33 29.0587 32.6839 29.6213 32.1213C30.1839 31.5587 30.5 30.7956 30.5 30V29.25"
        stroke="#94A3B8" stroke-width="2.4" stroke-linecap="round" stroke-linejoin="round" />
    <path d="M24.5 6H27.5C28.0261 6.00054 28.5428 6.13941 28.9983 6.40269C29.4537 6.66597 29.832 7.04439 30.095 7.5"
        stroke="#94A3B8" stroke-width="2.4" stroke-linecap="round" stroke-linejoin="round" />
    <path
        d="M28.13 14.4148C28.4225 14.1223 28.7698 13.8903 29.152 13.732C29.5342 13.5737 29.9438 13.4922 30.3575 13.4922C30.7712 13.4922 31.1808 13.5737 31.563 13.732C31.9452 13.8903 32.2925 14.1223 32.585 14.4148C32.8775 14.7074 33.1096 15.0546 33.2679 15.4368C33.4262 15.819 33.5077 16.2287 33.5077 16.6423C33.5077 17.056 33.4262 17.4657 33.2679 17.8479C33.1096 18.2301 32.8775 18.5773 32.585 18.8698L25.925 25.4998L20 26.9998L21.485 21.0748L28.13 14.4148Z"
        stroke="#94A3B8" stroke-width="2.4" stroke-linecap="round" stroke-linejoin="round" />
    <path d="M12.5 27H14" stroke="#94A3B8" stroke-width="2.4" stroke-linecap="round" stroke-linejoin="round" />
</svg>